<svg width="35" height="40" viewBox="0 0 35 40" fill="none" xmlns="http://www.w3.org/2000/svg">
<path d="M25.7833 9.36328C28.4998 9.36339 31.378 10.8517 33.4259 13.4199C26.7115 17.1219 27.7986 26.7676 34.5831 29.3477C33.6503 31.4268 33.2008 32.3557 31.9991 34.1973C30.3229 36.7679 27.9591 39.9687 25.0274 39.9922C22.4259 40.0202 21.7547 38.2876 18.2228 38.3086C14.6903 38.3274 13.9534 40.0258 11.3468 40C8.41742 39.9741 6.17733 37.0853 4.50108 34.5146C-0.188518 27.3319 -0.681817 18.9002 2.21006 14.415C4.26729 11.2306 7.51219 9.36835 10.5606 9.36816C13.6629 9.36816 15.6155 11.08 18.1847 11.0801C20.6768 11.0801 22.1947 9.36328 25.7833 9.36328ZM24.9972 0C25.3549 2.42957 24.3662 4.81014 23.0616 6.49414C21.6659 8.30022 19.2604 9.69685 16.9298 9.62402C16.5044 7.29798 17.5935 4.9011 18.919 3.29004C20.3731 1.51216 22.8652 0.148322 24.9972 0Z" fill="#1C1C1C"/>
</svg>
