<svg width="16" height="16" viewBox="0 0 16 16" fill="none" xmlns="http://www.w3.org/2000/svg">
<path d="M10.9496 3.07006L11.6096 2.41006C12.1564 1.86331 13.0429 1.86331 13.5896 2.41006C14.1363 2.95682 14.1363 3.84329 13.5896 4.39005L12.9296 5.05004M10.9496 3.07006L6.51006 7.5096C6.17172 7.848 5.9317 8.27186 5.81565 8.73606L5.33301 10.6667L7.26361 10.184C7.72781 10.068 8.15167 9.82793 8.49007 9.4896L12.9296 5.05004M10.9496 3.07006L12.9296 5.05004" stroke="#E0E0FF" stroke-linejoin="round"/>
<path d="M12.6666 8.99967C12.6666 11.1913 12.6666 12.2871 12.0613 13.0247C11.9505 13.1597 11.8267 13.2835 11.6917 13.3943C10.9541 13.9997 9.85827 13.9997 7.6666 13.9997H7.33333C4.81917 13.9997 3.56211 13.9997 2.78106 13.2186C2.00002 12.4376 2 11.1805 2 8.66634V8.33301C2 6.14135 2 5.04553 2.60529 4.30797C2.71611 4.17294 2.83993 4.04912 2.97496 3.9383C3.71253 3.33301 4.80835 3.33301 7 3.33301" stroke="#E0E0FF" stroke-linecap="round" stroke-linejoin="round"/>
</svg>
