<svg width="40" height="40" viewBox="0 0 40 40" fill="none" xmlns="http://www.w3.org/2000/svg">
<rect width="40" height="40" rx="8" fill="#2F2F2F" fill-opacity="0.1"/>
<path d="M16 11.0978C16 11.0978 12.0337 10.7419 11.3878 11.3879C10.7419 12.0338 11.0978 16 11.0978 16" stroke="white" stroke-width="1.5" stroke-linecap="round" stroke-linejoin="round"/>
<path d="M16 28.9022C16 28.9022 12.0337 29.2581 11.3878 28.6122C10.7419 27.9662 11.0978 24 11.0978 24" stroke="white" stroke-width="1.5" stroke-linecap="round" stroke-linejoin="round"/>
<path d="M24 11.0978C24 11.0978 27.9663 10.7419 28.6122 11.3879C29.2581 12.0338 28.9022 16 28.9022 16" stroke="white" stroke-width="1.5" stroke-linecap="round" stroke-linejoin="round"/>
<path d="M24 28.9022C24 28.9022 27.9663 29.2581 28.6122 28.6122C29.2581 27.9662 28.9022 24 28.9022 24" stroke="white" stroke-width="1.5" stroke-linecap="round" stroke-linejoin="round"/>
<path d="M22.0107 17.9985L28.0624 11.9468" stroke="white" stroke-width="1.5" stroke-linecap="round" stroke-linejoin="round"/>
<path d="M17.9969 22.0024L11.6396 28.3807" stroke="white" stroke-width="1.5" stroke-linecap="round" stroke-linejoin="round"/>
<path d="M17.9973 18.0024L11.8457 11.8589" stroke="white" stroke-width="1.5" stroke-linecap="round" stroke-linejoin="round"/>
<path d="M21.9795 22.0024L28.5279 28.4983" stroke="white" stroke-width="1.5" stroke-linecap="round" stroke-linejoin="round"/>
</svg>
