<svg width="24" height="24" viewBox="0 0 24 24" fill="none" xmlns="http://www.w3.org/2000/svg">
<rect width="24" height="24" rx="8" fill="#E0E0FF"/>
<path d="M5.6665 11.9993C5.6665 9.01379 5.6665 7.52101 6.594 6.59351C7.5215 5.66602 9.01428 5.66602 11.9998 5.66602C14.9854 5.66602 16.4782 5.66602 17.4057 6.59351C18.3332 7.52101 18.3332 9.01379 18.3332 11.9993C18.3332 14.9849 18.3332 16.4777 17.4057 17.4052C16.4782 18.3327 14.9854 18.3327 11.9998 18.3327C9.01428 18.3327 7.5215 18.3327 6.594 17.4052C5.6665 16.4777 5.6665 14.9849 5.6665 11.9993Z" stroke="#3D4279"/>
<path d="M9.3335 13.1667C9.3335 13.1667 10.4002 13.775 10.9335 14.6667C10.9335 14.6667 12.5335 11.1667 14.6668 10" stroke="#3D4279" stroke-linecap="round" stroke-linejoin="round"/>
</svg>
