<svg width="24" height="24" viewBox="0 0 24 24" fill="none" xmlns="http://www.w3.org/2000/svg">
<rect width="24" height="24" rx="8" fill="#E0E0FF"/>
<path d="M14.9501 7.07006L15.6101 6.41006C16.1569 5.86331 17.0434 5.86331 17.5901 6.41006C18.1368 6.95682 18.1368 7.84329 17.5901 8.39005L16.9301 9.05004M14.9501 7.07006L10.5105 11.5096C10.1722 11.848 9.93219 12.2719 9.81614 12.7361L9.3335 14.6667L11.2641 14.184C11.7283 14.068 12.1522 13.8279 12.4906 13.4896L16.9301 9.05004M14.9501 7.07006L16.9301 9.05004" stroke="#3D4279" stroke-linejoin="round"/>
<path d="M16.6666 13.0007C16.6666 15.1923 16.6666 16.2881 16.0613 17.0257C15.9505 17.1607 15.8267 17.2845 15.6917 17.3953C14.9541 18.0007 13.8583 18.0007 11.6666 18.0007H11.3333C8.81917 18.0007 7.56211 18.0007 6.78106 17.2196C6.00002 16.4386 6 15.1815 6 12.6673V12.334C6 10.1423 6 9.04651 6.60529 8.30894C6.71611 8.17392 6.83993 8.0501 6.97496 7.93928C7.71253 7.33398 8.80835 7.33398 11 7.33398" stroke="#3D4279" stroke-linecap="round" stroke-linejoin="round"/>
</svg>
