<svg width="70" height="70" viewBox="0 0 70 70" fill="none" xmlns="http://www.w3.org/2000/svg">
<path d="M36.459 55.418V64.168" stroke="#141B34" stroke-width="3" stroke-linecap="round" stroke-linejoin="round"/>
<path d="M30.625 64.168H42.2917" stroke="#141B34" stroke-width="3" stroke-linecap="round" stroke-linejoin="round"/>
<path d="M39.3743 46.6654C28.0985 46.6654 18.9577 37.5245 18.9577 26.2487C18.9577 14.9729 28.0985 5.83203 39.3743 5.83203C50.6502 5.83203 59.791 14.9729 59.791 26.2487C59.791 37.5245 50.6502 46.6654 39.3743 46.6654Z" stroke="#141B34" stroke-width="3" stroke-linecap="round"/>
<path d="M24.791 11.6654C26.6994 11.7777 27.6854 12.7124 29.3804 14.5033C32.4417 17.738 35.5031 18.0079 37.5439 16.9297C40.6052 15.3124 38.0327 12.6926 41.6257 11.269C43.9675 10.3411 44.2942 7.81612 42.9907 5.83203" stroke="#141B34" stroke-width="3" stroke-linejoin="round"/>
<path d="M58.3326 29.168C53.9576 29.168 53.1812 32.8045 49.5826 32.0846C42.291 30.6263 40.2248 32.2564 40.2248 35.7337C40.2248 39.2106 40.2248 39.2106 38.7084 41.8184C37.722 43.5148 37.3773 45.2108 39.3434 46.668" stroke="#141B34" stroke-width="3" stroke-linejoin="round"/>
<path d="M18.959 5.83203C13.5592 11.0819 10.209 18.3976 10.209 26.4894C10.209 42.4648 23.2673 55.4154 39.3756 55.4154C47.325 55.4154 54.5312 52.2616 59.7923 47.1466" stroke="#141B34" stroke-width="3" stroke-linecap="round"/>
</svg>
