<svg width="48" height="48" viewBox="0 0 48 48" fill="none" xmlns="http://www.w3.org/2000/svg">
<g filter="url(#filter0_ii_5097_3563)">
<g clip-path="url(#clip0_5097_3563)">
<mask id="path-1-inside-1_5097_3563" fill="white">
<path d="M0 8C0 3.58172 3.58172 0 8 0H40C44.4183 0 48 3.58172 48 8V40C48 44.4183 44.4183 48 40 48H8C3.58172 48 0 44.4183 0 40V8Z"/>
</mask>
<path d="M0 8C0 3.58172 3.58172 0 8 0H40C44.4183 0 48 3.58172 48 8V40C48 44.4183 44.4183 48 40 48H8C3.58172 48 0 44.4183 0 40V8Z" fill="url(#paint0_linear_5097_3563)"/>
<g filter="url(#filter1_d_5097_3563)">
<path d="M0 0H48L0 48V0Z" fill="url(#paint1_linear_5097_3563)"/>
</g>
</g>
<path d="M0 0H48H0ZM48 40C48 45.5228 43.5228 50 38 50H10C4.47715 50 0 45.5228 0 40C0 43.3137 3.58172 46 8 46H40C44.4183 46 48 43.3137 48 40ZM0 48V0V48ZM48 0V48V0Z" fill="url(#paint2_linear_5097_3563)" mask="url(#path-1-inside-1_5097_3563)"/>
</g>
<defs>
<filter id="filter0_ii_5097_3563" x="0" y="0" width="48" height="48" filterUnits="userSpaceOnUse" color-interpolation-filters="sRGB">
<feFlood flood-opacity="0" result="BackgroundImageFix"/>
<feBlend mode="normal" in="SourceGraphic" in2="BackgroundImageFix" result="shape"/>
<feColorMatrix in="SourceAlpha" type="matrix" values="0 0 0 0 0 0 0 0 0 0 0 0 0 0 0 0 0 0 127 0" result="hardAlpha"/>
<feOffset/>
<feGaussianBlur stdDeviation="4"/>
<feComposite in2="hardAlpha" operator="arithmetic" k2="-1" k3="1"/>
<feColorMatrix type="matrix" values="0 0 0 0 1 0 0 0 0 0.537255 0 0 0 0 0.490196 0 0 0 1 0"/>
<feBlend mode="normal" in2="shape" result="effect1_innerShadow_5097_3563"/>
<feColorMatrix in="SourceAlpha" type="matrix" values="0 0 0 0 0 0 0 0 0 0 0 0 0 0 0 0 0 0 127 0" result="hardAlpha"/>
<feOffset/>
<feGaussianBlur stdDeviation="2"/>
<feComposite in2="hardAlpha" operator="arithmetic" k2="-1" k3="1"/>
<feColorMatrix type="matrix" values="0 0 0 0 1 0 0 0 0 1 0 0 0 0 1 0 0 0 0.5 0"/>
<feBlend mode="normal" in2="effect1_innerShadow_5097_3563" result="effect2_innerShadow_5097_3563"/>
</filter>
<filter id="filter1_d_5097_3563" x="-8" y="-6" width="64" height="64" filterUnits="userSpaceOnUse" color-interpolation-filters="sRGB">
<feFlood flood-opacity="0" result="BackgroundImageFix"/>
<feColorMatrix in="SourceAlpha" type="matrix" values="0 0 0 0 0 0 0 0 0 0 0 0 0 0 0 0 0 0 127 0" result="hardAlpha"/>
<feOffset dy="2"/>
<feGaussianBlur stdDeviation="4"/>
<feComposite in2="hardAlpha" operator="out"/>
<feColorMatrix type="matrix" values="0 0 0 0 0.4375 0 0 0 0 0.4375 0 0 0 0 0.4375 0 0 0 0.14 0"/>
<feBlend mode="normal" in2="BackgroundImageFix" result="effect1_dropShadow_5097_3563"/>
<feBlend mode="normal" in="SourceGraphic" in2="effect1_dropShadow_5097_3563" result="shape"/>
</filter>
<linearGradient id="paint0_linear_5097_3563" x1="24" y1="0" x2="24" y2="48" gradientUnits="userSpaceOnUse">
<stop stop-color="#F2E792"/>
<stop offset="0.456731" stop-color="#F8B133"/>
<stop offset="1" stop-color="#DE712B"/>
</linearGradient>
<linearGradient id="paint1_linear_5097_3563" x1="24" y1="0" x2="24" y2="48" gradientUnits="userSpaceOnUse">
<stop stop-color="#F2E792"/>
<stop offset="0.456731" stop-color="#F8B133"/>
<stop offset="1" stop-color="#DE712B"/>
</linearGradient>
<linearGradient id="paint2_linear_5097_3563" x1="24" y1="0" x2="24" y2="48" gradientUnits="userSpaceOnUse">
<stop stop-color="#F2E792"/>
<stop offset="0.456731" stop-color="#F8B133"/>
<stop offset="1" stop-color="#DE712B"/>
</linearGradient>
<clipPath id="clip0_5097_3563">
<path d="M0 8C0 3.58172 3.58172 0 8 0H40C44.4183 0 48 3.58172 48 8V40C48 44.4183 44.4183 48 40 48H8C3.58172 48 0 44.4183 0 40V8Z" fill="white"/>
</clipPath>
</defs>
</svg>
