<svg width="41" height="40" viewBox="0 0 41 40" fill="none" xmlns="http://www.w3.org/2000/svg">
<path d="M20.9004 7.73334C24.656 7.73334 27.1893 9.35556 28.6338 10.7111L34.2782 5.2C30.8115 1.97778 26.3004 0 20.9004 0C13.0782 0 6.32264 4.48889 3.03375 11.0222L9.50042 16.0445C11.1226 11.2222 15.6115 7.73334 20.9004 7.73334Z" fill="#EA4335"/>
<path d="M40.1004 20.4444C40.1004 18.8 39.9671 17.6 39.6782 16.3555H20.9004V23.7778H31.9226C31.7004 25.6222 30.5004 28.4 27.8337 30.2666L34.1448 35.1555C37.9226 31.6667 40.1004 26.5333 40.1004 20.4444Z" fill="#4285F4"/>
<path d="M9.52262 23.9556C9.10039 22.7112 8.85595 21.3778 8.85595 20.0001C8.85595 18.6223 9.10042 17.2889 9.50042 16.0445L3.03375 11.0222C1.6782 13.7333 0.900391 16.7778 0.900391 20.0001C0.900391 23.2223 1.67817 26.2667 3.03372 28.9778L9.52262 23.9556Z" fill="#FBBC05"/>
<path d="M20.9004 40C26.3004 40 30.8337 38.2222 34.1448 35.1555L27.8337 30.2666C26.1448 31.4444 23.8782 32.2667 20.9004 32.2667C15.6115 32.2667 11.1226 28.7778 9.52262 23.9556L3.05592 28.9778C6.34481 35.5111 13.0781 40 20.9004 40Z" fill="#34A853"/>
</svg>
