<svg width="48" height="48" viewBox="0 0 48 48" fill="none" xmlns="http://www.w3.org/2000/svg">
<path d="M31 22C31 18.134 27.866 15 24 15C20.134 15 17 18.134 17 22C17 25.866 20.134 29 24 29C27.866 29 31 25.866 31 22Z" stroke="#E0E0FF" stroke-width="2" stroke-linecap="round" stroke-linejoin="round"/>
<path d="M30.9655 22.6998C31.6095 22.895 32.2925 23 33.0001 23C36.8661 23 40.0001 19.866 40.0001 16C40.0001 12.134 36.8661 9 33.0001 9C29.3703 9 26.3857 11.7628 26.0347 15.3003" stroke="#E0E0FF" stroke-width="2" stroke-linecap="round" stroke-linejoin="round"/>
<path d="M21.9654 15.3003C21.6144 11.7628 18.6298 9 15 9C11.134 9 8 12.134 8 16C8 19.866 11.134 23 15 23C15.7076 23 16.3907 22.895 17.0345 22.6998" stroke="#E0E0FF" stroke-width="2" stroke-linecap="round" stroke-linejoin="round"/>
<path d="M44 33C44 27.4772 39.0752 23 33 23" stroke="#E0E0FF" stroke-width="2" stroke-linecap="round" stroke-linejoin="round"/>
<path d="M35 39C35 33.4772 30.0752 29 24 29C17.9249 29 13 33.4772 13 39" stroke="#E0E0FF" stroke-width="2" stroke-linecap="round" stroke-linejoin="round"/>
<path d="M15 23C8.92486 23 4 27.4772 4 33" stroke="#E0E0FF" stroke-width="2" stroke-linecap="round" stroke-linejoin="round"/>
</svg>
