<svg width="91" height="35" viewBox="0 0 91 35" fill="none" xmlns="http://www.w3.org/2000/svg">
<path d="M5.35831 3.61328V26.2897H0.830078V3.61328H5.35831Z" fill="#E0E0FF"/>
<path d="M19.762 8.0316C21.8967 8.0316 23.6218 8.71384 24.9371 10.0783C26.2524 11.4212 26.9101 13.3054 26.9101 15.7312V26.2897H22.3819V16.3485C22.3819 14.919 22.0261 13.8252 21.3145 13.0672C20.6029 12.2875 19.6326 11.8976 18.4035 11.8976C17.1529 11.8976 16.161 12.2875 15.4278 13.0672C14.7162 13.8252 14.3604 14.919 14.3604 16.3485V26.2897H9.83221V8.2915H14.3604V10.5332C14.9642 9.75345 15.7297 9.14701 16.6569 8.71385C17.6057 8.25902 18.6407 8.0316 19.762 8.0316Z" fill="#E0E0FF"/>
<path d="M35.3563 22.5536H43.3454V26.2897H30.2136V22.6186L38.0409 12.0276H30.2459V8.2915H43.2484V11.9626L35.3563 22.5536Z" fill="#E0E0FF"/>
<path d="M49.148 6.14732C48.3502 6.14732 47.6817 5.89825 47.1426 5.4001C46.6251 4.8803 46.3664 4.24137 46.3664 3.48333C46.3664 2.72528 46.6251 2.09718 47.1426 1.59904C47.6817 1.07924 48.3502 0.819336 49.148 0.819336C49.9458 0.819336 50.6035 1.07924 51.121 1.59904C51.6601 2.09718 51.9296 2.72528 51.9296 3.48333C51.9296 4.24137 51.6601 4.8803 51.121 5.4001C50.6035 5.89825 49.9458 6.14732 49.148 6.14732ZM51.3798 8.2915V26.2897H46.8515V8.2915H51.3798Z" fill="#E0E0FF"/>
<path d="M60.3819 2.2488V26.2897H55.8537V2.2488H60.3819Z" fill="#E0E0FF"/>
<path d="M69.384 2.2488V26.2897H64.8558V2.2488H69.384Z" fill="#E0E0FF"/>
<path d="M91.0005 8.2915L79.9063 34.8015H75.087L78.9684 25.8349L71.7879 8.2915H76.866L81.4912 20.8642L86.1812 8.2915H91.0005Z" fill="#E0E0FF"/>
</svg>
