<svg width="72" height="98" viewBox="0 0 72 98" fill="none" xmlns="http://www.w3.org/2000/svg">
<path d="M58.0787 62.7872C56.8663 63.0501 55.5955 63.0647 54.3393 63.0939C52.9954 63.1231 51.6662 63.0501 50.3223 63.0355C48.8908 63.0209 48.365 63.3714 47.956 64.7589C45.3413 73.3909 49.7965 81.9644 49.738 82.2711V77.422C49.738 72.3247 52.2066 67.534 56.3551 64.5837C57.2753 63.9264 58.1663 63.2254 59.0135 62.4805C58.7214 62.6119 58.4147 62.7142 58.0787 62.7872Z" fill="white"/>
<path d="M49.2559 84.666H22.7002V88.829H49.2559V84.666Z" fill="white"/>
<path d="M1.59299 43.3324H15.4697C14.6809 41.711 14.1989 40.0312 13.9506 38.293H0.891846C0.994095 40.002 1.22782 41.6964 1.59299 43.3324Z" fill="white"/>
<path d="M71.1666 35.8836C71.1666 16.1659 54.9527 0.245779 35.1309 0.713159C16.726 1.15133 1.75378 15.9322 0.848145 34.1309H13.7608C13.7608 34.0432 13.7608 33.9556 13.7608 33.8826C13.8923 31.2974 14.2721 28.7706 15.2507 26.3607C17.2081 21.497 20.743 18.1815 25.4757 16.0783C29.405 14.3402 33.5388 13.6976 37.7894 13.9021C41.7626 14.0919 45.5604 14.9975 49.1245 16.867C53.2437 19.0286 55.9898 22.3003 57.3191 26.7696C57.7865 28.3178 58.1371 29.866 58.0056 31.4873C57.918 32.4804 58.3854 33.2984 58.9697 34.0579C60.4742 36.015 62.0372 37.943 63.4979 39.9439C64.0091 40.645 64.3743 41.4775 64.6664 42.2954C64.944 43.0987 64.608 43.7852 63.8484 44.1942C63.2057 44.5301 62.5192 44.8076 61.8181 45.0121C60.6787 45.3334 60.518 45.9907 60.8394 47.0423C60.9562 47.4074 61.1315 47.7726 61.3652 48.0501C62.3147 49.1747 61.7304 50.3432 60.6057 50.8105C60.8248 51.1026 61.0877 51.3655 61.263 51.6869C61.5843 52.2273 61.5405 52.7531 61.0877 53.1912C60.1675 54.0968 59.9922 55.1776 60.3135 56.3753C60.4596 56.8865 60.5911 57.4123 60.7809 57.9089C61.2192 59.0481 61.1315 60.0851 60.6933 60.9322C67.1496 54.5496 71.1666 45.6839 71.1666 35.8836Z" fill="white"/>
<path d="M17.9384 47.4941H2.76172C5.4056 55.0745 10.5765 61.4571 17.2519 65.6782C18.143 66.2332 18.9609 66.8758 19.7205 67.5769C19.7643 67.314 19.8228 67.0511 19.8666 66.7882C20.5385 63.3121 21.0498 59.8067 21.2105 56.2721C21.3273 53.7454 20.6262 51.4815 19.1947 49.3783C18.7711 48.7502 18.3474 48.1222 17.9384 47.4941Z" fill="white"/>
<path d="M49.2559 93.1367H22.7002V97.2997H49.2559V93.1367Z" fill="white"/>
</svg>
