<svg width="44" height="44" viewBox="0 0 44 44" fill="none" xmlns="http://www.w3.org/2000/svg">
<path d="M27.5 16.5C27.5 13.4624 25.0377 11 22 11C18.9623 11 16.5 13.4624 16.5 16.5C16.5 19.5377 18.9623 22 22 22C25.0377 22 27.5 19.5377 27.5 16.5Z" stroke="#E0E0FF" stroke-width="1.5" stroke-linecap="round" stroke-linejoin="round"/>
<path d="M40.3333 21.9998C40.3333 11.8746 32.1251 3.6665 22 3.6665C11.8747 3.6665 3.66663 11.8746 3.66663 21.9998C3.66663 32.125 11.8747 40.3332 22 40.3332C32.1251 40.3332 40.3333 32.125 40.3333 21.9998Z" stroke="#E0E0FF" stroke-width="1.5" stroke-linecap="round" stroke-linejoin="round"/>
<path d="M31.1667 31.1667C31.1667 26.1041 27.0626 22 22 22C16.9374 22 12.8334 26.1041 12.8334 31.1667" stroke="#E0E0FF" stroke-width="1.5" stroke-linecap="round" stroke-linejoin="round"/>
</svg>
