<svg width="32" height="32" viewBox="0 0 32 32" fill="none" xmlns="http://www.w3.org/2000/svg">
<path d="M20 12C20 9.79087 18.2092 8 16 8C13.7908 8 12 9.79087 12 12C12 14.2092 13.7908 16 16 16C18.2092 16 20 14.2092 20 12Z" stroke="#5F5E5E" stroke-width="1.5" stroke-linecap="round" stroke-linejoin="round"/>
<path d="M29.3332 15.9993C29.3332 8.63555 23.3636 2.66602 15.9998 2.66602C8.63604 2.66602 2.6665 8.63555 2.6665 15.9993C2.6665 23.3631 8.63604 29.3327 15.9998 29.3327C23.3636 29.3327 29.3332 23.3631 29.3332 15.9993Z" stroke="#5F5E5E" stroke-width="1.5" stroke-linecap="round" stroke-linejoin="round"/>
<path d="M22.6668 22.6667C22.6668 18.9848 19.682 16 16.0002 16C12.3183 16 9.3335 18.9848 9.3335 22.6667" stroke="#5F5E5E" stroke-width="1.5" stroke-linecap="round" stroke-linejoin="round"/>
</svg>
