<svg width="32" height="32" viewBox="0 0 32 32" fill="none" xmlns="http://www.w3.org/2000/svg">
<path d="M20 12C20 9.79087 18.2092 8 16 8C13.7908 8 12 9.79087 12 12C12 14.2092 13.7908 16 16 16C18.2092 16 20 14.2092 20 12Z" stroke="#1D5128" stroke-width="1.5" stroke-linecap="round" stroke-linejoin="round"/>
<path d="M29.3337 15.9998C29.3337 8.63604 23.3641 2.6665 16.0003 2.6665C8.63653 2.6665 2.66699 8.63604 2.66699 15.9998C2.66699 23.3636 8.63653 29.3332 16.0003 29.3332C23.3641 29.3332 29.3337 23.3636 29.3337 15.9998Z" stroke="#1D5128" stroke-width="1.5" stroke-linecap="round" stroke-linejoin="round"/>
<path d="M22.6663 22.6667C22.6663 18.9848 19.6815 16 15.9997 16C12.3178 16 9.33301 18.9848 9.33301 22.6667" stroke="#1D5128" stroke-width="1.5" stroke-linecap="round" stroke-linejoin="round"/>
</svg>
