<svg width="40" height="40" viewBox="0 0 40 40" fill="none" xmlns="http://www.w3.org/2000/svg">
<g clip-path="url(#clip0_5144_28340)">
<mask id="path-1-inside-1_5144_28340" fill="white">
<path d="M0 20C0 8.95431 8.95431 0 20 0V0C31.0457 0 40 8.95431 40 20V20C40 31.0457 31.0457 40 20 40V40C8.95431 40 0 31.0457 0 20V20Z"/>
</mask>
<path d="M0 20C0 8.95431 8.95431 0 20 0V0C31.0457 0 40 8.95431 40 20V20C40 31.0457 31.0457 40 20 40V40C8.95431 40 0 31.0457 0 20V20Z" fill="#BA1A1A"/>
<g filter="url(#filter0_d_5144_28340)">
<path d="M0 0H40L0 40V0Z" fill="#DE3730"/>
</g>
</g>
<path d="M0 0H40H0ZM40 40H0H40ZM0 40V0V40ZM21 0C32.0457 0 41 8.95431 41 20C41 31.0457 32.0457 40 21 40H20C30.4934 40 39 31.0457 39 20C39 8.95431 30.4934 0 20 0H21Z" fill="#FF897D" mask="url(#path-1-inside-1_5144_28340)"/>
<defs>
<filter id="filter0_d_5144_28340" x="-8" y="-6" width="56" height="56" filterUnits="userSpaceOnUse" color-interpolation-filters="sRGB">
<feFlood flood-opacity="0" result="BackgroundImageFix"/>
<feColorMatrix in="SourceAlpha" type="matrix" values="0 0 0 0 0 0 0 0 0 0 0 0 0 0 0 0 0 0 127 0" result="hardAlpha"/>
<feOffset dy="2"/>
<feGaussianBlur stdDeviation="4"/>
<feComposite in2="hardAlpha" operator="out"/>
<feColorMatrix type="matrix" values="0 0 0 0 0.4375 0 0 0 0 0.4375 0 0 0 0 0.4375 0 0 0 0.14 0"/>
<feBlend mode="normal" in2="BackgroundImageFix" result="effect1_dropShadow_5144_28340"/>
<feBlend mode="normal" in="SourceGraphic" in2="effect1_dropShadow_5144_28340" result="shape"/>
</filter>
<clipPath id="clip0_5144_28340">
<path d="M0 20C0 8.95431 8.95431 0 20 0V0C31.0457 0 40 8.95431 40 20V20C40 31.0457 31.0457 40 20 40V40C8.95431 40 0 31.0457 0 20V20Z" fill="white"/>
</clipPath>
</defs>
</svg>
