<svg width="34" height="32" viewBox="0 0 34 32" fill="none" xmlns="http://www.w3.org/2000/svg">
<path opacity="0.22" d="M33.0809 22.2924L32.8286 14.3113L32.7751 14.2807C32.6681 14.0055 32.3164 13.1799 31.4067 12.5989C30.4817 12.0026 29.5567 12.0408 29.2662 12.0637C26.8428 10.7794 24.4194 9.48746 21.996 8.20315L17.9826 5.9403L11.1099 2.06442C11.0029 1.91153 10.8959 1.75099 10.7889 1.59809C10.5595 1.26937 10.1085 1.39169 9.97087 1.65925L3.30466 5.42811C3.27408 5.39753 3.2435 5.36695 3.21292 5.34402C2.80011 4.94649 2.1656 5.57336 2.57841 5.97853C2.69308 6.08556 2.80775 6.20023 2.92242 6.30725C4.81068 18.0878 5.36874 22.9957 5.41461 24.9528C5.45283 26.7799 6.2326 28.5534 6.25553 30.3805C6.25553 30.6557 6.25553 31.4279 6.75244 31.7948C7.08116 32.0394 7.50162 32.0165 7.77683 31.9706C8.12849 31.8483 8.48779 31.7184 8.83945 31.5961C16.6218 28.691 24.4118 25.7784 32.1941 22.8734C32.4923 22.6823 32.7904 22.4835 33.0809 22.2924Z" fill="#035D6B"/>
<path d="M32.2404 17.4537C32.2099 16.5898 32.1869 15.7336 32.1563 14.8698C32.1411 14.4646 32.1181 14.0671 32.1181 13.6619C32.1181 13.3561 32.1258 13.058 31.8888 12.821C31.69 12.6299 31.3995 12.5152 31.1625 12.3852C30.8109 12.1865 30.4592 11.9877 30.1076 11.7889C29.3737 11.3761 28.6398 10.9557 27.8982 10.5428C24.955 8.88394 22.0118 7.22503 19.0762 5.56612C16.1559 3.92251 13.2662 2.21773 10.3306 0.612333C9.81077 0.329478 9.17626 -0.198009 8.56468 0.0772012C7.84608 0.39828 7.16569 0.856965 6.48531 1.2392C5.03281 2.05719 3.58796 2.86753 2.1431 3.68552C1.60797 3.98366 0.828204 4.25123 0.927586 4.99277C1.03461 5.8184 1.24102 6.64403 1.39392 7.45437C1.70735 9.12093 2.02843 10.7875 2.34186 12.4617C2.97638 15.8254 3.61089 19.1814 4.25305 22.5451C4.56648 24.204 4.87992 25.8706 5.19335 27.5295C5.35389 28.3704 5.51443 29.2037 5.66732 30.0446C5.77435 30.595 5.74377 31.627 6.46238 31.7417C6.79875 31.7952 7.16569 31.5735 7.47148 31.4589C7.87665 31.306 8.28183 31.1607 8.67935 31.0078C9.45912 30.7173 10.2465 30.4268 11.0263 30.1287C12.6393 29.5247 14.2524 28.9208 15.8654 28.3245C19.0456 27.1396 22.2258 25.947 25.406 24.7621C27.0038 24.1658 28.6092 23.5695 30.2069 22.9656C30.5815 22.8279 30.9561 22.6827 31.3384 22.5451C31.6212 22.4381 31.9423 22.354 32.164 22.1476C32.4086 21.9106 32.3628 21.5971 32.3551 21.2914C32.3398 20.8403 32.3245 20.3893 32.3092 19.9382C32.2863 19.1126 32.2634 18.2793 32.2404 17.4537C32.2252 16.9644 31.4607 16.9644 31.476 17.4537C31.4989 18.2564 31.5295 19.0591 31.5524 19.8618C31.5677 20.2364 31.5753 20.611 31.5906 20.9856C31.5983 21.1461 31.6441 21.3525 31.6059 21.5131C31.5677 21.7118 31.3995 21.7118 31.216 21.7806C29.733 22.331 28.2575 22.8891 26.7745 23.4395C23.8083 24.548 20.8498 25.6565 17.8836 26.7573C14.8945 27.8735 11.9054 28.9896 8.91634 30.1057C8.19009 30.3809 7.41797 30.6103 6.70701 30.9314C6.64585 30.962 6.53882 30.9467 6.60763 30.9849C6.6535 31.0078 6.66114 31.2295 6.60763 30.8779C6.57705 30.702 6.53882 30.5338 6.50825 30.358C6.4318 29.9376 6.34771 29.5171 6.27126 29.0966C5.98076 27.5677 5.69026 26.0311 5.39976 24.5021C4.21482 18.264 3.02989 12.0106 1.8526 5.76489C1.82202 5.58906 1.7838 5.41323 1.75322 5.24504C1.71499 5.02335 1.64619 4.90868 1.81438 4.75578C2.06665 4.52644 2.48711 4.37355 2.7929 4.20536C3.48093 3.81548 4.1766 3.4256 4.86463 3.03572C5.52972 2.66112 6.20246 2.28653 6.86755 1.90429C7.18098 1.72846 7.49442 1.55264 7.80785 1.37681C8.12893 1.19333 8.45765 0.948702 8.79402 0.818741C8.96985 0.749938 9.05394 0.788162 9.21448 0.879899C9.36738 0.963991 9.52792 1.05573 9.68081 1.13982C10.0248 1.33094 10.3688 1.51441 10.7129 1.70553C11.3779 2.08012 12.0354 2.45472 12.7005 2.83695C14.0536 3.61672 15.4067 4.38883 16.7675 5.15331C19.5425 6.72048 22.3176 8.28001 25.0926 9.84718C26.4381 10.604 27.7836 11.3685 29.129 12.1253C29.7788 12.4923 30.4286 12.8745 31.0937 13.2262C31.1855 13.2797 31.3154 13.3102 31.346 13.4096C31.3842 13.509 31.3537 13.7078 31.3537 13.8148C31.3613 14.2429 31.3842 14.671 31.3919 15.0991C31.4148 15.8865 31.4377 16.6663 31.4683 17.4537C31.4913 17.9506 32.2557 17.9506 32.2404 17.4537Z" fill="black"/>
<path d="M31.4684 21.6121C31.5372 21.6274 31.6137 21.6503 31.6825 21.6656L31.4225 13.3252L8.93937 0.642578L1.67687 4.74016C1.68451 4.77838 1.6998 4.82425 1.70744 4.87776L1.59277 4.81661C3.25168 13.5622 4.90295 22.3078 6.56185 31.0534L6.73768 30.7705L6.58479 31.0686C14.9176 27.9572 23.2503 24.8458 31.5831 21.7344L31.4149 21.635C31.4302 21.6197 31.4531 21.6197 31.4684 21.6121Z" fill="#B90C39"/>
<path d="M31.4684 21.6121C31.5372 21.6274 31.6137 21.6503 31.6825 21.6656L31.4225 13.3252L8.93937 0.642578L1.67687 4.74016C1.68451 4.77838 1.6998 4.82425 1.70744 4.87776L1.59277 4.81661C3.25168 13.5622 4.90295 22.3078 6.56185 31.0534L6.73768 30.7705L6.58479 31.0686C14.9176 27.9572 23.2503 24.8458 31.5831 21.7344L31.4149 21.635C31.4302 21.6197 31.4531 21.6197 31.4684 21.6121Z" fill="url(#paint0_linear_4777_64804)"/>
<path d="M15.7127 21.199C12.0509 19.5554 8.68717 16.5663 8.46547 12.4534C8.42725 11.8648 8.38902 11.2532 8.38138 10.6416L7.79273 10.3129L7.8386 10.2747L7.66277 10.1753C7.41814 17.0708 7.18116 23.9588 6.93652 30.8543C6.94417 30.8543 6.95181 30.8467 6.95181 30.8467C8.78655 29.2795 10.6901 27.8805 12.823 26.5809C16.6989 24.3257 20.4524 22.2693 23.8085 19.4637L23.5562 19.3184C21.4386 21.2755 18.6177 22.4527 15.7127 21.199Z" fill="url(#paint1_linear_4777_64804)"/>
<path d="M8.38086 10.6426C8.3885 11.2618 8.41908 11.8657 8.46495 12.4544C8.68665 16.5673 12.0503 19.5563 15.7122 21.2C18.6172 22.4537 21.4381 21.2764 23.571 19.3194L13.6022 13.5858L8.38086 10.6426Z" fill="url(#paint2_linear_4777_64804)"/>
<path d="M31.598 21.4827C31.6133 21.4751 31.6362 21.4674 31.6515 21.4674L24.2208 19.6556L24.0908 19.6251L23.9532 19.5486L23.8156 19.4722C20.4519 22.2701 16.706 24.3266 12.8301 26.5894C10.7049 27.8737 8.79372 29.2804 6.95898 30.8399C15.2306 27.7514 23.5022 24.6629 31.7662 21.5745L31.598 21.4827Z" fill="url(#paint3_linear_4777_64804)"/>
<path d="M7.47922 9.98398L7.41807 9.9534L1.67687 4.40332C1.68451 4.44154 1.6998 4.48741 1.70744 4.54093L1.59277 4.47977C3.25168 13.2254 4.90295 21.9709 6.56185 30.7165L6.73768 30.4337L6.58479 30.7318C6.64595 30.7089 6.69946 30.6859 6.76062 30.6706C6.88293 30.5101 6.98996 30.3496 7.06641 30.1737C7.04347 30.189 7.02818 30.1967 7.00525 30.212C7.15814 23.4617 7.31868 16.7266 7.47922 9.98398Z" fill="url(#paint4_linear_4777_64804)"/>
<path d="M12.624 5.58105C10.8887 7.05649 9.15332 8.52428 7.41797 9.99971C12.8457 13.1188 18.2735 16.2455 23.7013 19.3645C24.0835 17.0711 24.4657 14.7777 24.8556 12.4766L12.624 5.58105Z" fill="url(#paint5_linear_4777_64804)"/>
<g style="mix-blend-mode:screen">
<path d="M13.0522 7.03271C11.8596 8.08004 10.6594 9.12737 9.4668 10.1747C10.5523 9.67015 12.0813 9.15795 13.9007 9.20382C16.7828 9.27262 18.9233 10.7022 18.9845 10.5799C19.0304 10.4881 17.9142 9.75424 13.0522 7.03271Z" fill="url(#paint6_linear_4777_64804)"/>
</g>
<path d="M30.8795 14.2114C29.2741 14.1731 27.6687 14.1349 26.0557 14.0967C27.6228 16.1149 29.1977 18.1331 30.7648 20.1513C30.803 18.1713 30.8413 16.1913 30.8795 14.2114Z" fill="url(#paint7_linear_4777_64804)"/>
<path d="M24.8704 12.7437L25.1915 12.9195C24.8092 15.2129 24.427 17.5063 24.0371 19.8074C24.06 19.8227 24.0753 19.8303 24.0983 19.8456L31.6589 21.688C31.7277 21.7033 31.8042 21.7262 31.873 21.7415L31.613 13.4011L31.5595 13.3705C29.289 13.424 27.0797 13.3705 24.8704 12.7437Z" fill="url(#paint8_linear_4777_64804)"/>
<path d="M9.35254 0.848145C9.4825 1.05455 9.6201 1.26096 9.773 1.46737C10.8815 3.12628 12.0435 4.55584 13.0526 6.07715L19.0919 9.47906C18.3045 8.00362 17.4942 6.53583 16.7679 5.02217L9.35254 0.848145Z" fill="url(#paint9_linear_4777_64804)"/>
<path d="M31.5527 13.371L20.7812 7.29346C21.5381 8.73831 22.249 10.1832 22.9218 11.651L24.8712 12.7518C27.0805 13.371 29.2898 13.4245 31.5527 13.371Z" fill="url(#paint10_linear_4777_64804)"/>
<path d="M16.7676 5.0293C17.4938 6.54296 18.3042 8.01075 19.0916 9.48618L22.9216 11.6496C22.2489 10.1895 21.5303 8.737 20.7811 7.29214L16.7676 5.0293Z" fill="url(#paint11_linear_4777_64804)"/>
<path d="M9.3522 0.848222L9.12285 0.718262L1.86035 4.81584C3.79447 6.67351 5.72859 8.53883 7.67035 10.3965C7.70093 10.4118 7.72387 10.4271 7.75445 10.4424C9.4898 8.96694 11.2252 7.49915 12.9605 6.02371L13.0522 6.07722C12.0431 4.55592 10.8811 3.12635 9.77266 1.46745C9.61976 1.26104 9.48216 1.05463 9.3522 0.848222Z" fill="url(#paint12_linear_4777_64804)"/>
<g style="mix-blend-mode:screen">
<path d="M3.52637 4.90637C5.5828 4.38653 7.63924 3.85904 9.68803 3.3392C9.27521 2.92639 8.8624 2.51357 8.45722 2.1084C6.81361 3.03341 5.16999 3.97371 3.52637 4.90637Z" fill="url(#paint13_linear_4777_64804)"/>
</g>
<g style="mix-blend-mode:screen">
<path d="M3.07617 7.59814L6.21816 14.5472L6.10349 22.3907L3.07617 7.59814Z" fill="url(#paint14_linear_4777_64804)"/>
</g>
<path d="M13.167 27.6587C15.6362 26.1985 18.0978 24.746 20.5671 23.2859C23.0364 22.9113 25.498 22.5367 27.9672 22.1621C23.0287 23.9968 18.0978 25.8316 13.167 27.6587Z" fill="url(#paint15_linear_4777_64804)"/>
<path d="M7.05762 30.4574C7.06526 30.4574 7.07291 30.4497 7.08055 30.4497C7.07291 30.4497 7.06526 30.4497 7.05762 30.4574Z" fill="url(#paint16_linear_4777_64804)"/>
<path d="M7.6084 10.4581L13.4108 13.7301L7.65427 10.4199L7.6084 10.4581Z" fill="url(#paint17_linear_4777_64804)"/>
<path d="M23.7316 19.4406C19.3358 22.2156 14.9401 24.9906 10.5444 27.7733C9.29064 28.5607 8.02925 29.3558 6.77552 30.1508C6.99721 30.2808 7.22656 30.4108 7.44825 30.5407C7.57057 25.2735 7.70053 20.0063 7.82285 14.739C7.86107 13.2483 7.89165 11.7576 7.92987 10.2669C7.94516 9.68587 7.04308 9.69352 7.03544 10.2669C6.91312 15.5341 6.78316 20.8013 6.66085 26.0686C6.62262 27.5593 6.59204 29.05 6.55382 30.5407C6.54617 30.8771 6.9437 31.1064 7.22656 30.9306C11.6223 28.1556 16.018 25.3805 20.4137 22.5978C21.6675 21.8028 22.9289 21.0077 24.1826 20.2203C24.6719 19.9069 24.2208 19.1271 23.7316 19.4406Z" fill="#F33A4A"/>
<path d="M1.35547 5.05243C3.15963 6.78779 4.95614 8.53079 6.7603 10.2661C7.08902 10.5872 7.39481 10.7783 7.79234 11.0077C8.73264 11.5505 9.68059 12.0932 10.6209 12.636C13.4418 14.2567 16.2627 15.885 19.0836 17.5057C20.1998 18.1479 21.3159 18.79 22.4397 19.4322C22.8754 19.6845 23.3264 20.0361 23.8081 20.1967C24.1444 20.3113 24.5114 20.3725 24.863 20.4566C25.6046 20.6401 26.3385 20.8159 27.08 20.9994C28.4255 21.3281 29.771 21.6568 31.1164 21.9855C31.2005 22.0085 31.2846 22.0238 31.3611 22.0467C31.9191 22.1843 32.1638 21.3204 31.5981 21.1828C29.1976 20.5942 26.7972 20.0132 24.3891 19.4245C24.282 19.4016 24.1597 19.3481 24.0451 19.3405C24.1215 19.3481 24.175 19.4093 24.068 19.3405C23.8539 19.2028 23.6246 19.0882 23.4105 18.9582C22.432 18.3925 21.4535 17.8344 20.475 17.2687C17.6541 15.648 14.8408 14.0274 12.0199 12.4067C10.942 11.7875 9.85642 11.1606 8.77851 10.5414C8.48037 10.3732 8.18222 10.1973 7.88408 10.0292C7.82292 9.99094 7.75412 9.93742 7.68531 9.91449C7.58593 9.88391 7.79234 10.0292 7.7006 9.92213C7.42539 9.60106 7.08138 9.3182 6.77559 9.0277C6.21752 8.49257 5.6671 7.95744 5.10904 7.4223C4.12286 6.482 3.14434 5.53405 2.16581 4.59375L1.35547 5.05243Z" fill="#FF4450"/>
<path d="M8.79312 1.13757C9.91689 2.75826 11.0407 4.37894 12.1568 5.99962C12.4855 6.4736 13.2576 6.02256 12.9289 5.54858C11.8051 3.9279 10.6814 2.30722 9.56524 0.686531C9.24416 0.212557 8.46439 0.663596 8.79312 1.13757Z" fill="#FF4450"/>
<path d="M31.0476 12.8896C29.0829 12.7673 27.1182 12.645 25.1458 12.5227C24.5725 12.4844 24.5725 13.3865 25.1458 13.4171C27.1105 13.5394 29.0752 13.6617 31.0476 13.784C31.6209 13.8223 31.6209 12.9278 31.0476 12.8896Z" fill="#FF4450"/>
<path d="M31.9877 21.6642C31.9418 20.2653 31.8959 18.8586 31.8577 17.4596C31.8271 16.4964 31.7966 15.5332 31.766 14.5776C31.7583 14.2794 31.7507 13.9736 31.7354 13.6755C31.7278 13.5455 31.7507 13.3774 31.7125 13.255C31.6513 13.0639 31.3761 12.9645 31.2156 12.8728C30.8486 12.6664 30.474 12.46 30.1071 12.2459C28.8075 11.512 27.5079 10.7781 26.2159 10.0519C22.6917 8.06426 19.1674 6.07663 15.6432 4.08899C13.4874 2.87348 11.3545 1.59681 9.16813 0.434808C8.90821 0.297203 8.72473 0.427163 8.48775 0.557124C7.82265 0.931716 7.14992 1.30631 6.48482 1.6809C4.93294 2.5524 3.37341 3.43155 1.81389 4.30305C1.71451 4.35656 1.61512 4.41772 1.51574 4.47123C1.47752 4.49416 1.44694 4.52474 1.42401 4.55532C1.32462 4.62413 1.26347 4.75409 1.29405 4.89169C2.58601 11.7108 3.87797 18.5376 5.16993 25.3567C5.53688 27.2831 5.89618 29.202 6.26313 31.1284C6.27842 31.2202 6.33957 31.289 6.41602 31.3196C6.48482 31.3731 6.56892 31.396 6.6683 31.3578C13.1663 28.9268 19.672 26.5034 26.17 24.0723C28.0048 23.3843 29.8395 22.7039 31.6666 22.0159C31.7125 22.0006 31.7507 21.9777 31.7813 21.9471C31.8959 21.9089 31.9953 21.8019 31.9877 21.6642ZM12.0043 28.7127C10.3301 29.3396 8.65593 29.9664 6.97409 30.5933C6.92057 30.5245 6.84413 30.4786 6.76003 30.4633C5.49865 23.8048 4.24491 17.1539 2.98353 10.4953C2.63952 8.67584 2.29551 6.86403 1.95149 5.04459C1.98207 4.99872 2.00501 4.95285 2.01265 4.89934C4.07673 3.73734 6.14081 2.57534 8.20489 1.41333C8.44952 1.27573 8.7018 1.13812 8.94643 0.992874C11.431 2.39186 13.9155 3.79849 16.4001 5.19748C20.4365 7.47561 24.4729 9.75374 28.5093 12.0319C29.3808 12.5211 30.2523 13.018 31.1238 13.5073C31.2003 15.8848 31.2767 18.2623 31.3455 20.6399C31.3532 20.8692 31.3608 21.0985 31.3685 21.3279C31.3685 21.3355 31.3149 21.4655 31.3149 21.4655C31.3149 21.4655 31.1926 21.5954 31.1238 21.5802C24.7481 23.95 18.3724 26.3352 12.0043 28.7127Z" fill="black"/>
<path d="M24.152 19.2802C22.3173 18.2482 20.4826 17.2085 18.6402 16.1765C15.7122 14.5252 12.7843 12.874 9.85636 11.2227C9.18363 10.8405 8.50324 10.4582 7.83051 10.0836C7.86109 10.3206 7.89166 10.55 7.92224 10.7869C9.42826 9.47204 10.9343 8.15715 12.4403 6.84225C12.6543 6.65113 12.8684 6.46766 13.0824 6.27654C12.899 6.29948 12.7231 6.32241 12.5397 6.34535C13.9157 7.12511 15.2918 7.89723 16.6678 8.67699C18.8619 9.91544 21.0559 11.1539 23.2499 12.3923C23.7545 12.6752 24.2591 12.958 24.7636 13.2485C24.6948 13.0804 24.626 12.9122 24.5572 12.744C24.2438 14.724 23.938 16.7116 23.6245 18.6916C23.5787 18.9821 23.5328 19.265 23.4869 19.5555C23.3952 20.1212 24.2591 20.3658 24.3508 19.7924C24.6642 17.8125 24.97 15.8248 25.2834 13.8448C25.3293 13.5543 25.3752 13.2715 25.4211 12.981C25.4516 12.7822 25.3981 12.5758 25.2146 12.4764C23.8386 11.6967 22.4625 10.9245 21.0865 10.1448C18.8924 8.90633 16.6984 7.66789 14.5044 6.42944C13.9998 6.14658 13.4953 5.86373 12.9907 5.57323C12.8072 5.4662 12.6008 5.51207 12.4479 5.64203C10.9419 6.95692 9.4359 8.27182 7.92989 9.58672C7.71583 9.77783 7.50178 9.96131 7.28773 10.1524C7.07368 10.3435 7.14248 10.7258 7.37947 10.8557C9.2142 11.8878 11.0489 12.9275 12.8913 13.9595C15.8193 15.6108 18.7472 17.262 21.6751 18.9133C22.3479 19.2955 23.0282 19.6778 23.701 20.0524C24.2055 20.3352 24.6566 19.5631 24.152 19.2802Z" fill="#FF4450"/>
<path d="M20.0459 9.76318L24.8697 12.7446L24.1511 19.2809L25.4278 12.9663L30.137 13.2798L25.2214 12.4618L20.0459 9.76318Z" fill="#FFCBB8"/>
<path d="M2.48633 5.42871L7.03495 10.2678L6.96615 28.1489L7.6083 10.459L16.308 15.6727L7.83765 10.0767L11.9734 6.77419L7.41718 9.9544L2.48633 5.42871Z" fill="#FFCBB8"/>
<defs>
<linearGradient id="paint0_linear_4777_64804" x1="20.5419" y1="3.97098" x2="13.0315" y2="21.7941" gradientUnits="userSpaceOnUse">
<stop stop-color="#ED223E"/>
<stop offset="0.0896271" stop-color="#ED223E"/>
<stop offset="1" stop-color="#ED223E"/>
</linearGradient>
<linearGradient id="paint1_linear_4777_64804" x1="15.0824" y1="16.2899" x2="6.26378" y2="35.8702" gradientUnits="userSpaceOnUse">
<stop stop-color="#ED223E"/>
<stop offset="0.1623" stop-color="#DD1B36"/>
<stop offset="0.4043" stop-color="#CC132D"/>
<stop offset="0.6696" stop-color="#C20E28"/>
<stop offset="1" stop-color="#BF0D26"/>
</linearGradient>
<linearGradient id="paint2_linear_4777_64804" x1="15.9605" y1="15.0153" x2="12.9138" y2="21.7798" gradientUnits="userSpaceOnUse">
<stop stop-color="#ED223E"/>
<stop offset="0.1623" stop-color="#DD1B36"/>
<stop offset="0.4043" stop-color="#CC132D"/>
<stop offset="0.6696" stop-color="#C20E28"/>
<stop offset="1" stop-color="#BF0D26"/>
</linearGradient>
<linearGradient id="paint3_linear_4777_64804" x1="19.2571" y1="25.6406" x2="17.1645" y2="14.7294" gradientUnits="userSpaceOnUse">
<stop stop-color="#ED3748"/>
<stop offset="0.0896271" stop-color="#ED3748"/>
<stop offset="1" stop-color="#ED3748"/>
</linearGradient>
<linearGradient id="paint4_linear_4777_64804" x1="7.10441" y1="15.3924" x2="10.131" y2="13.1505" gradientUnits="userSpaceOnUse">
<stop stop-color="#ED223E"/>
<stop offset="0.0896271" stop-color="#ED223E"/>
<stop offset="1" stop-color="#ED223E"/>
</linearGradient>
<linearGradient id="paint5_linear_4777_64804" x1="17.2844" y1="11.4834" x2="15.0425" y2="15.631" gradientUnits="userSpaceOnUse">
<stop stop-color="#ED223E"/>
<stop offset="0.0896271" stop-color="#ED223E"/>
<stop offset="1" stop-color="#ED223E"/>
</linearGradient>
<linearGradient id="paint6_linear_4777_64804" x1="29.3948" y1="23.3241" x2="2.9935" y2="0.76022" gradientUnits="userSpaceOnUse">
<stop stop-color="#D13E13"/>
<stop offset="0.115" stop-color="#C13912"/>
<stop offset="0.34" stop-color="#972D0E"/>
<stop offset="0.6531" stop-color="#531908"/>
<stop offset="1"/>
</linearGradient>
<linearGradient id="paint7_linear_4777_64804" x1="31.6058" y1="17.8514" x2="16.1798" y2="4.66755" gradientUnits="userSpaceOnUse">
<stop stop-color="#D13E13"/>
<stop offset="0.115" stop-color="#C13912"/>
<stop offset="0.34" stop-color="#972D0E"/>
<stop offset="0.6531" stop-color="#531908"/>
<stop offset="1"/>
</linearGradient>
<linearGradient id="paint8_linear_4777_64804" x1="26.9369" y1="14.3146" x2="30.9726" y2="24.7773" gradientUnits="userSpaceOnUse">
<stop stop-color="#ED2A38"/>
<stop offset="0.0896271" stop-color="#ED2A38"/>
<stop offset="1" stop-color="#ED2A38"/>
</linearGradient>
<linearGradient id="paint9_linear_4777_64804" x1="15.7623" y1="2.19485" x2="11.9986" y2="9.44352" gradientUnits="userSpaceOnUse">
<stop stop-color="#ED223E"/>
<stop offset="0.0896271" stop-color="#ED223E"/>
<stop offset="1" stop-color="#ED223E"/>
</linearGradient>
<linearGradient id="paint10_linear_4777_64804" x1="27.0156" y1="8.68985" x2="23.5172" y2="15.4274" gradientUnits="userSpaceOnUse">
<stop stop-color="#ED223E"/>
<stop offset="0.0896271" stop-color="#ED223E"/>
<stop offset="1" stop-color="#ED223E"/>
</linearGradient>
<linearGradient id="paint11_linear_4777_64804" x1="19.9501" y1="8.67386" x2="22.1921" y2="15.6989" gradientUnits="userSpaceOnUse">
<stop stop-color="#ED223E"/>
<stop offset="0.0896271" stop-color="#ED223E"/>
<stop offset="1" stop-color="#ED223E"/>
</linearGradient>
<linearGradient id="paint12_linear_4777_64804" x1="6.80716" y1="4.26526" x2="11.9636" y2="10.4305" gradientUnits="userSpaceOnUse">
<stop stop-color="#ED223E"/>
<stop offset="0.0896271" stop-color="#ED223E"/>
<stop offset="1" stop-color="#ED223E"/>
</linearGradient>
<linearGradient id="paint13_linear_4777_64804" x1="3.52554" y1="3.50372" x2="9.69079" y2="3.50372" gradientUnits="userSpaceOnUse">
<stop stop-color="#D13E13"/>
<stop offset="0.115" stop-color="#C13912"/>
<stop offset="0.34" stop-color="#972D0E"/>
<stop offset="0.6531" stop-color="#531908"/>
<stop offset="1"/>
</linearGradient>
<linearGradient id="paint14_linear_4777_64804" x1="6.36559" y1="16.1958" x2="1.20607" y2="12.702" gradientUnits="userSpaceOnUse">
<stop stop-color="#D13E13"/>
<stop offset="0.115" stop-color="#C13912"/>
<stop offset="0.34" stop-color="#972D0E"/>
<stop offset="0.6531" stop-color="#531908"/>
<stop offset="1"/>
</linearGradient>
<linearGradient id="paint15_linear_4777_64804" x1="22.0712" y1="25.9357" x2="17.6903" y2="22.9691" gradientUnits="userSpaceOnUse">
<stop stop-color="#D13E13"/>
<stop offset="0.115" stop-color="#C13912"/>
<stop offset="0.34" stop-color="#972D0E"/>
<stop offset="0.6531" stop-color="#531908"/>
<stop offset="1"/>
</linearGradient>
<linearGradient id="paint16_linear_4777_64804" x1="7.07102" y1="30.4447" x2="7.06566" y2="30.4577" gradientUnits="userSpaceOnUse">
<stop stop-color="#ED223E"/>
<stop offset="0.0896271" stop-color="#ED223E"/>
<stop offset="1" stop-color="#ED223E"/>
</linearGradient>
<linearGradient id="paint17_linear_4777_64804" x1="10.4221" y1="12.2761" x2="10.5898" y2="11.9337" gradientUnits="userSpaceOnUse">
<stop stop-color="#ED223E"/>
<stop offset="0.0896271" stop-color="#ED223E"/>
<stop offset="1" stop-color="#ED223E"/>
</linearGradient>
</defs>
</svg>
