<svg width="48" height="48" viewBox="0 0 48 48" fill="none" xmlns="http://www.w3.org/2000/svg">
<path d="M19.4852 28.5149C18.9104 27.9401 19.0059 25.4982 19.0059 25.4982M19.4852 28.5149C20.06 29.0897 22.5019 28.994 22.5019 28.994M19.4852 28.5149L23 25M28.5149 19.4851C27.9401 18.9103 25.4982 19.006 25.4982 19.006M28.5149 19.4851C29.0897 20.0599 28.994 22.5018 28.994 22.5018M28.5149 19.4851L25 23" stroke="white" stroke-width="1.5" stroke-linecap="round" stroke-linejoin="round"/>
<path d="M14.5 24C14.5 19.5217 14.5 17.2825 15.8912 15.8912C17.2825 14.5 19.5217 14.5 24 14.5C28.4783 14.5 30.7175 14.5 32.1088 15.8912C33.5 17.2825 33.5 19.5217 33.5 24C33.5 28.4783 33.5 30.7175 32.1088 32.1088C30.7175 33.5 28.4783 33.5 24 33.5C19.5217 33.5 17.2825 33.5 15.8912 32.1088C14.5 30.7175 14.5 28.4783 14.5 24Z" stroke="white" stroke-width="1.5"/>
</svg>
