<svg width="48" height="48" viewBox="0 0 48 48" fill="none" xmlns="http://www.w3.org/2000/svg">
<path d="M27.9351 24.6258C27.6807 25.8374 26.327 26.7077 23.6198 28.4481C20.6753 30.3411 19.203 31.2876 18.0105 30.9229C17.6066 30.7994 17.2346 30.5823 16.9223 30.2876C16 29.4178 16 27.6118 16 24C16 20.3882 16 18.5822 16.9223 17.7123C17.2346 17.4177 17.6066 17.2006 18.0105 17.0771C19.203 16.7124 20.6753 17.6589 23.6198 19.5519C26.327 21.2923 27.6807 22.1626 27.9351 23.3742C28.0216 23.7865 28.0216 24.2135 27.9351 24.6258Z" stroke="white" stroke-width="1.5" stroke-linejoin="round"/>
<path d="M32 17V31" stroke="white" stroke-width="1.5" stroke-linecap="round"/>
</svg>
