<svg width="48" height="48" viewBox="0 0 48 48" fill="none" xmlns="http://www.w3.org/2000/svg">
<path d="M20.0649 24.6258C20.3193 25.8374 21.6729 26.7077 24.3802 28.4481C27.3247 30.3411 28.797 31.2876 29.9895 30.9229C30.3934 30.7994 30.7654 30.5823 31.0777 30.2876C32 29.4178 32 27.6118 32 24C32 20.3882 32 18.5822 31.0777 17.7123C30.7654 17.4177 30.3934 17.2006 29.9895 17.0771C28.797 16.7124 27.3247 17.6589 24.3802 19.5519C21.6729 21.2923 20.3193 22.1626 20.0649 23.3742C19.9784 23.7865 19.9784 24.2135 20.0649 24.6258Z" stroke="white" stroke-width="1.5" stroke-linejoin="round"/>
<path d="M16 16V32" stroke="white" stroke-width="1.5" stroke-linecap="round"/>
</svg>
