<svg width="25" height="24" viewBox="0 0 25 24" fill="none" xmlns="http://www.w3.org/2000/svg">
<path d="M21.8175 7.14139L21.3239 6.28479C20.9506 5.63696 20.764 5.31305 20.4464 5.18388C20.1288 5.05472 19.7696 5.15664 19.0513 5.36048L17.8311 5.70418C17.3725 5.80994 16.8913 5.74994 16.4726 5.53479L16.1357 5.34042C15.7766 5.11043 15.5004 4.77133 15.3475 4.37274L15.0136 3.37536C14.794 2.71534 14.6842 2.38533 14.4228 2.19657C14.1615 2.00781 13.8143 2.00781 13.1199 2.00781H12.0051C11.3108 2.00781 10.9636 2.00781 10.7022 2.19657C10.4408 2.38533 10.3311 2.71534 10.1115 3.37536L9.77753 4.37274C9.62465 4.77133 9.34845 5.11043 8.98937 5.34042L8.65249 5.53479C8.23374 5.74994 7.75259 5.80994 7.29398 5.70418L6.07375 5.36048C5.35541 5.15664 4.99625 5.05472 4.67867 5.18388C4.36109 5.31305 4.17445 5.63696 3.80115 6.28479L3.30757 7.14139C2.95766 7.74864 2.7827 8.05227 2.81666 8.37549C2.85061 8.69871 3.08483 8.95918 3.55326 9.48012L4.5843 10.6328C4.8363 10.9518 5.01521 11.5078 5.01521 12.0077C5.01521 12.5078 4.83636 13.0636 4.58433 13.3827L3.55326 14.5354C3.08483 15.0564 2.85062 15.3168 2.81666 15.6401C2.7827 15.9633 2.95766 16.2669 3.30757 16.8741L3.80114 17.7307C4.17443 18.3785 4.36109 18.7025 4.67867 18.8316C4.99625 18.9608 5.35542 18.8589 6.07377 18.655L7.29394 18.3113C7.75263 18.2055 8.23387 18.2656 8.65267 18.4808L8.9895 18.6752C9.34851 18.9052 9.62464 19.2442 9.7775 19.6428L10.1115 20.6403C10.3311 21.3003 10.4408 21.6303 10.7022 21.8191C10.9636 22.0078 11.3108 22.0078 12.0051 22.0078H13.1199C13.8143 22.0078 14.1615 22.0078 14.4228 21.8191C14.6842 21.6303 14.794 21.3003 15.0136 20.6403L15.3476 19.6428C15.5004 19.2442 15.7765 18.9052 16.1356 18.6752L16.4724 18.4808C16.8912 18.2656 17.3724 18.2055 17.8311 18.3113L19.0513 18.655C19.7696 18.8589 20.1288 18.9608 20.4464 18.8316C20.764 18.7025 20.9506 18.3785 21.3239 17.7307L21.8175 16.8741C22.1674 16.2669 22.3423 15.9633 22.3084 15.6401C22.2744 15.3168 22.0402 15.0564 21.5718 14.5354L20.5407 13.3827C20.2887 13.0636 20.1098 12.5078 20.1098 12.0077C20.1098 11.5078 20.2888 10.9518 20.5407 10.6328L21.5718 9.48012C22.0402 8.95918 22.2744 8.69871 22.3084 8.37549C22.3423 8.05227 22.1674 7.74864 21.8175 7.14139Z" stroke="white" stroke-width="1.5" stroke-linecap="round"/>
<path d="M16.0195 12C16.0195 13.933 14.4525 15.5 12.5195 15.5C10.5865 15.5 9.01953 13.933 9.01953 12C9.01953 10.067 10.5865 8.5 12.5195 8.5C14.4525 8.5 16.0195 10.067 16.0195 12Z" stroke="white" stroke-width="1.5"/>
</svg>
