<svg width="48" height="48" viewBox="0 0 48 48" fill="none" xmlns="http://www.w3.org/2000/svg">
<path d="M26 26.8135V21.1865C26 18.0413 26 16.4687 25.0747 16.0773C24.1494 15.6859 23.0603 16.7979 20.8823 19.0219C19.7544 20.1736 19.1109 20.4287 17.506 20.4287C16.1026 20.4287 15.4008 20.4287 14.8968 20.7726C13.8504 21.4865 14.0085 22.882 14.0085 24C14.0085 25.118 13.8504 26.5134 14.8968 27.2274C15.4008 27.5713 16.1026 27.5713 17.506 27.5713C19.1109 27.5713 19.7544 27.8264 20.8823 28.9781C23.0603 31.2021 24.1494 32.3141 25.0747 31.9227C26 31.5313 26 29.9587 26 26.8135Z" stroke="white" stroke-width="1.5" stroke-linecap="round" stroke-linejoin="round"/>
<path d="M29 21C29.6254 21.8197 30 22.8634 30 24C30 25.1366 29.6254 26.1803 29 27" stroke="white" stroke-width="1.5" stroke-linecap="round" stroke-linejoin="round"/>
<path d="M32 19C33.2508 20.3661 34 22.1057 34 24C34 25.8943 33.2508 27.6339 32 29" stroke="white" stroke-width="1.5" stroke-linecap="round" stroke-linejoin="round"/>
</svg>
